<svg xmlns="http://www.w3.org/2000/svg" viewBox="-50 -50 100 100">
  <circle cx="0" cy="0" r="50" fill="#2c1a08"/>
  <circle cx="0" cy="0" r="46.0" fill="#111" stroke="#c8a040" stroke-width="0.8"/>
  <path d="M-6.836,-43.162 L-7.196,-45.434 A46.000,46.000 0 0 1 7.196,-45.434 L6.836,-43.162 A43.700,43.700 0 0 0 -6.836,-43.162 Z" fill="#c0392b" stroke="#c8a040" stroke-width="0.3"/>
  <path d="M-4.509,-28.472 L-6.836,-43.162 A43.700,43.700 0 0 1 6.836,-43.162 L4.509,-28.472 A28.827,28.827 0 0 0 -4.509,-28.472 Z" fill="#e8dcc5" stroke="#c8a040" stroke-width="0.3"/>
  <path d="M-4.174,-26.352 L-4.509,-28.472 A28.827,28.827 0 0 1 4.509,-28.472 L4.174,-26.352 A26.680,26.680 0 0 0 -4.174,-26.352 Z" fill="#c0392b" stroke="#c8a040" stroke-width="0.3"/>
  <path d="M-0.672,-4.240 L-4.174,-26.352 A26.680,26.680 0 0 1 4.174,-26.352 L0.672,-4.240 A4.293,4.293 0 0 0 -0.672,-4.240 Z" fill="#e8dcc5" stroke="#c8a040" stroke-width="0.3"/>
  <path d="M6.836,-43.162 L7.196,-45.434 A46.000,46.000 0 0 1 20.884,-40.986 L19.839,-38.937 A43.700,43.700 0 0 0 6.836,-43.162 Z" fill="#1e8449" stroke="#c8a040" stroke-width="0.3"/>
  <path d="M4.509,-28.472 L6.836,-43.162 A43.700,43.700 0 0 1 19.839,-38.937 L13.087,-25.685 A28.827,28.827 0 0 0 4.509,-28.472 Z" fill="#181818" stroke="#c8a040" stroke-width="0.3"/>
  <path d="M4.174,-26.352 L4.509,-28.472 A28.827,28.827 0 0 1 13.087,-25.685 L12.112,-23.772 A26.680,26.680 0 0 0 4.174,-26.352 Z" fill="#1e8449" stroke="#c8a040" stroke-width="0.3"/>
  <path d="M0.672,-4.240 L4.174,-26.352 A26.680,26.680 0 0 1 12.112,-23.772 L1.949,-3.825 A4.293,4.293 0 0 0 0.672,-4.240 Z" fill="#181818" stroke="#c8a040" stroke-width="0.3"/>
  <path d="M19.839,-38.937 L20.884,-40.986 A46.000,46.000 0 0 1 32.527,-32.527 L30.901,-30.901 A43.700,43.700 0 0 0 19.839,-38.937 Z" fill="#c0392b" stroke="#c8a040" stroke-width="0.3"/>
  <path d="M13.087,-25.685 L19.839,-38.937 A43.700,43.700 0 0 1 30.901,-30.901 L20.384,-20.384 A28.827,28.827 0 0 0 13.087,-25.685 Z" fill="#e8dcc5" stroke="#c8a040" stroke-width="0.3"/>
  <path d="M12.112,-23.772 L13.087,-25.685 A28.827,28.827 0 0 1 20.384,-20.384 L18.866,-18.866 A26.680,26.680 0 0 0 12.112,-23.772 Z" fill="#c0392b" stroke="#c8a040" stroke-width="0.3"/>
  <path d="M1.949,-3.825 L12.112,-23.772 A26.680,26.680 0 0 1 18.866,-18.866 L3.036,-3.036 A4.293,4.293 0 0 0 1.949,-3.825 Z" fill="#e8dcc5" stroke="#c8a040" stroke-width="0.3"/>
  <path d="M30.901,-30.901 L32.527,-32.527 A46.000,46.000 0 0 1 40.986,-20.884 L38.937,-19.839 A43.700,43.700 0 0 0 30.901,-30.901 Z" fill="#1e8449" stroke="#c8a040" stroke-width="0.3"/>
  <path d="M20.384,-20.384 L30.901,-30.901 A43.700,43.700 0 0 1 38.937,-19.839 L25.685,-13.087 A28.827,28.827 0 0 0 20.384,-20.384 Z" fill="#181818" stroke="#c8a040" stroke-width="0.3"/>
  <path d="M18.866,-18.866 L20.384,-20.384 A28.827,28.827 0 0 1 25.685,-13.087 L23.772,-12.112 A26.680,26.680 0 0 0 18.866,-18.866 Z" fill="#1e8449" stroke="#c8a040" stroke-width="0.3"/>
  <path d="M3.036,-3.036 L18.866,-18.866 A26.680,26.680 0 0 1 23.772,-12.112 L3.825,-1.949 A4.293,4.293 0 0 0 3.036,-3.036 Z" fill="#181818" stroke="#c8a040" stroke-width="0.3"/>
  <path d="M38.937,-19.839 L40.986,-20.884 A46.000,46.000 0 0 1 45.434,-7.196 L43.162,-6.836 A43.700,43.700 0 0 0 38.937,-19.839 Z" fill="#c0392b" stroke="#c8a040" stroke-width="0.3"/>
  <path d="M25.685,-13.087 L38.937,-19.839 A43.700,43.700 0 0 1 43.162,-6.836 L28.472,-4.509 A28.827,28.827 0 0 0 25.685,-13.087 Z" fill="#e8dcc5" stroke="#c8a040" stroke-width="0.3"/>
  <path d="M23.772,-12.112 L25.685,-13.087 A28.827,28.827 0 0 1 28.472,-4.509 L26.352,-4.174 A26.680,26.680 0 0 0 23.772,-12.112 Z" fill="#c0392b" stroke="#c8a040" stroke-width="0.3"/>
  <path d="M3.825,-1.949 L23.772,-12.112 A26.680,26.680 0 0 1 26.352,-4.174 L4.240,-0.672 A4.293,4.293 0 0 0 3.825,-1.949 Z" fill="#e8dcc5" stroke="#c8a040" stroke-width="0.3"/>
  <path d="M43.162,-6.836 L45.434,-7.196 A46.000,46.000 0 0 1 45.434,7.196 L43.162,6.836 A43.700,43.700 0 0 0 43.162,-6.836 Z" fill="#1e8449" stroke="#c8a040" stroke-width="0.3"/>
  <path d="M28.472,-4.509 L43.162,-6.836 A43.700,43.700 0 0 1 43.162,6.836 L28.472,4.509 A28.827,28.827 0 0 0 28.472,-4.509 Z" fill="#181818" stroke="#c8a040" stroke-width="0.3"/>
  <path d="M26.352,-4.174 L28.472,-4.509 A28.827,28.827 0 0 1 28.472,4.509 L26.352,4.174 A26.680,26.680 0 0 0 26.352,-4.174 Z" fill="#1e8449" stroke="#c8a040" stroke-width="0.3"/>
  <path d="M4.240,-0.672 L26.352,-4.174 A26.680,26.680 0 0 1 26.352,4.174 L4.240,0.672 A4.293,4.293 0 0 0 4.240,-0.672 Z" fill="#181818" stroke="#c8a040" stroke-width="0.3"/>
  <path d="M43.162,6.836 L45.434,7.196 A46.000,46.000 0 0 1 40.986,20.884 L38.937,19.839 A43.700,43.700 0 0 0 43.162,6.836 Z" fill="#c0392b" stroke="#c8a040" stroke-width="0.3"/>
  <path d="M28.472,4.509 L43.162,6.836 A43.700,43.700 0 0 1 38.937,19.839 L25.685,13.087 A28.827,28.827 0 0 0 28.472,4.509 Z" fill="#e8dcc5" stroke="#c8a040" stroke-width="0.3"/>
  <path d="M26.352,4.174 L28.472,4.509 A28.827,28.827 0 0 1 25.685,13.087 L23.772,12.112 A26.680,26.680 0 0 0 26.352,4.174 Z" fill="#c0392b" stroke="#c8a040" stroke-width="0.3"/>
  <path d="M4.240,0.672 L26.352,4.174 A26.680,26.680 0 0 1 23.772,12.112 L3.825,1.949 A4.293,4.293 0 0 0 4.240,0.672 Z" fill="#e8dcc5" stroke="#c8a040" stroke-width="0.3"/>
  <path d="M38.937,19.839 L40.986,20.884 A46.000,46.000 0 0 1 32.527,32.527 L30.901,30.901 A43.700,43.700 0 0 0 38.937,19.839 Z" fill="#1e8449" stroke="#c8a040" stroke-width="0.3"/>
  <path d="M25.685,13.087 L38.937,19.839 A43.700,43.700 0 0 1 30.901,30.901 L20.384,20.384 A28.827,28.827 0 0 0 25.685,13.087 Z" fill="#181818" stroke="#c8a040" stroke-width="0.3"/>
  <path d="M23.772,12.112 L25.685,13.087 A28.827,28.827 0 0 1 20.384,20.384 L18.866,18.866 A26.680,26.680 0 0 0 23.772,12.112 Z" fill="#1e8449" stroke="#c8a040" stroke-width="0.3"/>
  <path d="M3.825,1.949 L23.772,12.112 A26.680,26.680 0 0 1 18.866,18.866 L3.036,3.036 A4.293,4.293 0 0 0 3.825,1.949 Z" fill="#181818" stroke="#c8a040" stroke-width="0.3"/>
  <path d="M30.901,30.901 L32.527,32.527 A46.000,46.000 0 0 1 20.884,40.986 L19.839,38.937 A43.700,43.700 0 0 0 30.901,30.901 Z" fill="#c0392b" stroke="#c8a040" stroke-width="0.3"/>
  <path d="M20.384,20.384 L30.901,30.901 A43.700,43.700 0 0 1 19.839,38.937 L13.087,25.685 A28.827,28.827 0 0 0 20.384,20.384 Z" fill="#e8dcc5" stroke="#c8a040" stroke-width="0.3"/>
  <path d="M18.866,18.866 L20.384,20.384 A28.827,28.827 0 0 1 13.087,25.685 L12.112,23.772 A26.680,26.680 0 0 0 18.866,18.866 Z" fill="#c0392b" stroke="#c8a040" stroke-width="0.3"/>
  <path d="M3.036,3.036 L18.866,18.866 A26.680,26.680 0 0 1 12.112,23.772 L1.949,3.825 A4.293,4.293 0 0 0 3.036,3.036 Z" fill="#e8dcc5" stroke="#c8a040" stroke-width="0.3"/>
  <path d="M19.839,38.937 L20.884,40.986 A46.000,46.000 0 0 1 7.196,45.434 L6.836,43.162 A43.700,43.700 0 0 0 19.839,38.937 Z" fill="#1e8449" stroke="#c8a040" stroke-width="0.3"/>
  <path d="M13.087,25.685 L19.839,38.937 A43.700,43.700 0 0 1 6.836,43.162 L4.509,28.472 A28.827,28.827 0 0 0 13.087,25.685 Z" fill="#181818" stroke="#c8a040" stroke-width="0.3"/>
  <path d="M12.112,23.772 L13.087,25.685 A28.827,28.827 0 0 1 4.509,28.472 L4.174,26.352 A26.680,26.680 0 0 0 12.112,23.772 Z" fill="#1e8449" stroke="#c8a040" stroke-width="0.3"/>
  <path d="M1.949,3.825 L12.112,23.772 A26.680,26.680 0 0 1 4.174,26.352 L0.672,4.240 A4.293,4.293 0 0 0 1.949,3.825 Z" fill="#181818" stroke="#c8a040" stroke-width="0.3"/>
  <path d="M6.836,43.162 L7.196,45.434 A46.000,46.000 0 0 1 -7.196,45.434 L-6.836,43.162 A43.700,43.700 0 0 0 6.836,43.162 Z" fill="#c0392b" stroke="#c8a040" stroke-width="0.3"/>
  <path d="M4.509,28.472 L6.836,43.162 A43.700,43.700 0 0 1 -6.836,43.162 L-4.509,28.472 A28.827,28.827 0 0 0 4.509,28.472 Z" fill="#e8dcc5" stroke="#c8a040" stroke-width="0.3"/>
  <path d="M4.174,26.352 L4.509,28.472 A28.827,28.827 0 0 1 -4.509,28.472 L-4.174,26.352 A26.680,26.680 0 0 0 4.174,26.352 Z" fill="#c0392b" stroke="#c8a040" stroke-width="0.3"/>
  <path d="M0.672,4.240 L4.174,26.352 A26.680,26.680 0 0 1 -4.174,26.352 L-0.672,4.240 A4.293,4.293 0 0 0 0.672,4.240 Z" fill="#e8dcc5" stroke="#c8a040" stroke-width="0.3"/>
  <path d="M-6.836,43.162 L-7.196,45.434 A46.000,46.000 0 0 1 -20.884,40.986 L-19.839,38.937 A43.700,43.700 0 0 0 -6.836,43.162 Z" fill="#1e8449" stroke="#c8a040" stroke-width="0.3"/>
  <path d="M-4.509,28.472 L-6.836,43.162 A43.700,43.700 0 0 1 -19.839,38.937 L-13.087,25.685 A28.827,28.827 0 0 0 -4.509,28.472 Z" fill="#181818" stroke="#c8a040" stroke-width="0.3"/>
  <path d="M-4.174,26.352 L-4.509,28.472 A28.827,28.827 0 0 1 -13.087,25.685 L-12.112,23.772 A26.680,26.680 0 0 0 -4.174,26.352 Z" fill="#1e8449" stroke="#c8a040" stroke-width="0.3"/>
  <path d="M-0.672,4.240 L-4.174,26.352 A26.680,26.680 0 0 1 -12.112,23.772 L-1.949,3.825 A4.293,4.293 0 0 0 -0.672,4.240 Z" fill="#181818" stroke="#c8a040" stroke-width="0.3"/>
  <path d="M-19.839,38.937 L-20.884,40.986 A46.000,46.000 0 0 1 -32.527,32.527 L-30.901,30.901 A43.700,43.700 0 0 0 -19.839,38.937 Z" fill="#c0392b" stroke="#c8a040" stroke-width="0.3"/>
  <path d="M-13.087,25.685 L-19.839,38.937 A43.700,43.700 0 0 1 -30.901,30.901 L-20.384,20.384 A28.827,28.827 0 0 0 -13.087,25.685 Z" fill="#e8dcc5" stroke="#c8a040" stroke-width="0.3"/>
  <path d="M-12.112,23.772 L-13.087,25.685 A28.827,28.827 0 0 1 -20.384,20.384 L-18.866,18.866 A26.680,26.680 0 0 0 -12.112,23.772 Z" fill="#c0392b" stroke="#c8a040" stroke-width="0.3"/>
  <path d="M-1.949,3.825 L-12.112,23.772 A26.680,26.680 0 0 1 -18.866,18.866 L-3.036,3.036 A4.293,4.293 0 0 0 -1.949,3.825 Z" fill="#e8dcc5" stroke="#c8a040" stroke-width="0.3"/>
  <path d="M-30.901,30.901 L-32.527,32.527 A46.000,46.000 0 0 1 -40.986,20.884 L-38.937,19.839 A43.700,43.700 0 0 0 -30.901,30.901 Z" fill="#1e8449" stroke="#c8a040" stroke-width="0.3"/>
  <path d="M-20.384,20.384 L-30.901,30.901 A43.700,43.700 0 0 1 -38.937,19.839 L-25.685,13.087 A28.827,28.827 0 0 0 -20.384,20.384 Z" fill="#181818" stroke="#c8a040" stroke-width="0.3"/>
  <path d="M-18.866,18.866 L-20.384,20.384 A28.827,28.827 0 0 1 -25.685,13.087 L-23.772,12.112 A26.680,26.680 0 0 0 -18.866,18.866 Z" fill="#1e8449" stroke="#c8a040" stroke-width="0.3"/>
  <path d="M-3.036,3.036 L-18.866,18.866 A26.680,26.680 0 0 1 -23.772,12.112 L-3.825,1.949 A4.293,4.293 0 0 0 -3.036,3.036 Z" fill="#181818" stroke="#c8a040" stroke-width="0.3"/>
  <path d="M-38.937,19.839 L-40.986,20.884 A46.000,46.000 0 0 1 -45.434,7.196 L-43.162,6.836 A43.700,43.700 0 0 0 -38.937,19.839 Z" fill="#c0392b" stroke="#c8a040" stroke-width="0.3"/>
  <path d="M-25.685,13.087 L-38.937,19.839 A43.700,43.700 0 0 1 -43.162,6.836 L-28.472,4.509 A28.827,28.827 0 0 0 -25.685,13.087 Z" fill="#e8dcc5" stroke="#c8a040" stroke-width="0.3"/>
  <path d="M-23.772,12.112 L-25.685,13.087 A28.827,28.827 0 0 1 -28.472,4.509 L-26.352,4.174 A26.680,26.680 0 0 0 -23.772,12.112 Z" fill="#c0392b" stroke="#c8a040" stroke-width="0.3"/>
  <path d="M-3.825,1.949 L-23.772,12.112 A26.680,26.680 0 0 1 -26.352,4.174 L-4.240,0.672 A4.293,4.293 0 0 0 -3.825,1.949 Z" fill="#e8dcc5" stroke="#c8a040" stroke-width="0.3"/>
  <path d="M-43.162,6.836 L-45.434,7.196 A46.000,46.000 0 0 1 -45.434,-7.196 L-43.162,-6.836 A43.700,43.700 0 0 0 -43.162,6.836 Z" fill="#1e8449" stroke="#c8a040" stroke-width="0.3"/>
  <path d="M-28.472,4.509 L-43.162,6.836 A43.700,43.700 0 0 1 -43.162,-6.836 L-28.472,-4.509 A28.827,28.827 0 0 0 -28.472,4.509 Z" fill="#181818" stroke="#c8a040" stroke-width="0.3"/>
  <path d="M-26.352,4.174 L-28.472,4.509 A28.827,28.827 0 0 1 -28.472,-4.509 L-26.352,-4.174 A26.680,26.680 0 0 0 -26.352,4.174 Z" fill="#1e8449" stroke="#c8a040" stroke-width="0.3"/>
  <path d="M-4.240,0.672 L-26.352,4.174 A26.680,26.680 0 0 1 -26.352,-4.174 L-4.240,-0.672 A4.293,4.293 0 0 0 -4.240,0.672 Z" fill="#181818" stroke="#c8a040" stroke-width="0.3"/>
  <path d="M-43.162,-6.836 L-45.434,-7.196 A46.000,46.000 0 0 1 -40.986,-20.884 L-38.937,-19.839 A43.700,43.700 0 0 0 -43.162,-6.836 Z" fill="#c0392b" stroke="#c8a040" stroke-width="0.3"/>
  <path d="M-28.472,-4.509 L-43.162,-6.836 A43.700,43.700 0 0 1 -38.937,-19.839 L-25.685,-13.087 A28.827,28.827 0 0 0 -28.472,-4.509 Z" fill="#e8dcc5" stroke="#c8a040" stroke-width="0.3"/>
  <path d="M-26.352,-4.174 L-28.472,-4.509 A28.827,28.827 0 0 1 -25.685,-13.087 L-23.772,-12.112 A26.680,26.680 0 0 0 -26.352,-4.174 Z" fill="#c0392b" stroke="#c8a040" stroke-width="0.3"/>
  <path d="M-4.240,-0.672 L-26.352,-4.174 A26.680,26.680 0 0 1 -23.772,-12.112 L-3.825,-1.949 A4.293,4.293 0 0 0 -4.240,-0.672 Z" fill="#e8dcc5" stroke="#c8a040" stroke-width="0.3"/>
  <path d="M-38.937,-19.839 L-40.986,-20.884 A46.000,46.000 0 0 1 -32.527,-32.527 L-30.901,-30.901 A43.700,43.700 0 0 0 -38.937,-19.839 Z" fill="#1e8449" stroke="#c8a040" stroke-width="0.3"/>
  <path d="M-25.685,-13.087 L-38.937,-19.839 A43.700,43.700 0 0 1 -30.901,-30.901 L-20.384,-20.384 A28.827,28.827 0 0 0 -25.685,-13.087 Z" fill="#181818" stroke="#c8a040" stroke-width="0.3"/>
  <path d="M-23.772,-12.112 L-25.685,-13.087 A28.827,28.827 0 0 1 -20.384,-20.384 L-18.866,-18.866 A26.680,26.680 0 0 0 -23.772,-12.112 Z" fill="#1e8449" stroke="#c8a040" stroke-width="0.3"/>
  <path d="M-3.825,-1.949 L-23.772,-12.112 A26.680,26.680 0 0 1 -18.866,-18.866 L-3.036,-3.036 A4.293,4.293 0 0 0 -3.825,-1.949 Z" fill="#181818" stroke="#c8a040" stroke-width="0.3"/>
  <path d="M-30.901,-30.901 L-32.527,-32.527 A46.000,46.000 0 0 1 -20.884,-40.986 L-19.839,-38.937 A43.700,43.700 0 0 0 -30.901,-30.901 Z" fill="#c0392b" stroke="#c8a040" stroke-width="0.3"/>
  <path d="M-20.384,-20.384 L-30.901,-30.901 A43.700,43.700 0 0 1 -19.839,-38.937 L-13.087,-25.685 A28.827,28.827 0 0 0 -20.384,-20.384 Z" fill="#e8dcc5" stroke="#c8a040" stroke-width="0.3"/>
  <path d="M-18.866,-18.866 L-20.384,-20.384 A28.827,28.827 0 0 1 -13.087,-25.685 L-12.112,-23.772 A26.680,26.680 0 0 0 -18.866,-18.866 Z" fill="#c0392b" stroke="#c8a040" stroke-width="0.3"/>
  <path d="M-3.036,-3.036 L-18.866,-18.866 A26.680,26.680 0 0 1 -12.112,-23.772 L-1.949,-3.825 A4.293,4.293 0 0 0 -3.036,-3.036 Z" fill="#e8dcc5" stroke="#c8a040" stroke-width="0.3"/>
  <path d="M-19.839,-38.937 L-20.884,-40.986 A46.000,46.000 0 0 1 -7.196,-45.434 L-6.836,-43.162 A43.700,43.700 0 0 0 -19.839,-38.937 Z" fill="#1e8449" stroke="#c8a040" stroke-width="0.3"/>
  <path d="M-13.087,-25.685 L-19.839,-38.937 A43.700,43.700 0 0 1 -6.836,-43.162 L-4.509,-28.472 A28.827,28.827 0 0 0 -13.087,-25.685 Z" fill="#181818" stroke="#c8a040" stroke-width="0.3"/>
  <path d="M-12.112,-23.772 L-13.087,-25.685 A28.827,28.827 0 0 1 -4.509,-28.472 L-4.174,-26.352 A26.680,26.680 0 0 0 -12.112,-23.772 Z" fill="#1e8449" stroke="#c8a040" stroke-width="0.3"/>
  <path d="M-1.949,-3.825 L-12.112,-23.772 A26.680,26.680 0 0 1 -4.174,-26.352 L-0.672,-4.240 A4.293,4.293 0 0 0 -1.949,-3.825 Z" fill="#181818" stroke="#c8a040" stroke-width="0.3"/>
  <circle cx="0" cy="0" r="4.293" fill="#1e8449" stroke="#c8a040" stroke-width="0.4"/>
  <circle cx="0" cy="0" r="1.840" fill="#c0392b" stroke="#c8a040" stroke-width="0.3"/>
</svg>
